<svg xmlns="http://www.w3.org/2000/svg" viewBox="0 0 64 64" fill="none">
  <g fill="#e8a040" opacity="0.85">
    <ellipse cx="32" cy="32" rx="4" ry="10" transform="rotate(0 32 32)"/>
    <ellipse cx="32" cy="32" rx="4" ry="10" transform="rotate(45 32 32)"/>
    <ellipse cx="32" cy="32" rx="4" ry="10" transform="rotate(90 32 32)"/>
    <ellipse cx="32" cy="32" rx="4" ry="10" transform="rotate(135 32 32)"/>
    <ellipse cx="32" cy="32" rx="4" ry="10" transform="rotate(180 32 32)"/>
    <ellipse cx="32" cy="32" rx="4" ry="10" transform="rotate(225 32 32)"/>
    <ellipse cx="32" cy="32" rx="4" ry="10" transform="rotate(270 32 32)"/>
    <ellipse cx="32" cy="32" rx="4" ry="10" transform="rotate(315 32 32)"/>
  </g>
  <circle cx="32" cy="34" r="14" fill="#f0b132"/>
  <circle cx="22" cy="24" r="5" fill="#d4922a"/>
  <circle cx="42" cy="24" r="5" fill="#d4922a"/>
  <circle cx="27" cy="33" r="2.5" fill="#1e1f22"/>
  <circle cx="37" cy="33" r="2.5" fill="#1e1f22"/>
  <ellipse cx="32" cy="38" rx="3" ry="2.5" fill="#1e1f22"/>
</svg>
